<svg xmlns="http://www.w3.org/2000/svg" width="24" height="24" viewBox="0 0 383.56 404.66"><defs><style>.cls-1{fill:#fff;}</style></defs><g><path d="M199.24,382.33c-31.76-.28-57.8-4.89-82.57-15.76a5,5,0,0,0-5.08.45,764,764,0,0,1-69,35.41,29.25,29.25,0,0,1-4.82,1.82c-7.38,1.9-12.5-3.12-10.18-10.34,6.87-21.46,15.7-42.2,24-63.11,1.7-4.27,1.64-7-1.81-10.67C14.16,282.32-1.37,236.59.09,185.39,2.8,90.7,74.07,13.33,168.19,1.5A191.73,191.73,0,0,1,367.93,115.31c49,113-22.2,244.36-143.53,264.68C214.51,381.65,204.49,382.54,199.24,382.33Zm27.64-93.62c3.67-.28,4.49-3,4.88-5.87,1.55-11.31,2.64-22.71,4.56-34,5.51-32.39,23.06-54.37,55.53-63.3,10-2.75,20.32-3.82,30.42-6,2.54-.54,4.91-1.49,5.08-4.55s-2.29-4.13-4.56-4.64c-5.77-1.28-11.6-2.34-17.45-3.25-30.52-4.75-53.89-19-64.86-49.3-6-16.51-6.61-34-8.64-51.23-.38-3.18-1.4-6.06-4.91-6.16s-4.61,2.78-5,5.74c-1.32,10-2.45,20.12-3.86,30.16-4.71,33.64-20.95,58.14-55,67.78-9.82,2.78-20,4.11-30.08,6.15-2.6.53-4.74,1.8-4.8,4.83s2,4.64,4.83,5.09c5.64.9,11.3,1.69,17,2.51,31.93,4.6,54.84,20.25,64,52.52,4.33,15.21,5.65,30.94,7.34,46.59C221.71,285.4,223,288.07,226.88,288.71ZM106.55,264.87a22.16,22.16,0,0,0,1-2.88c2.34-12.35,9.46-20.25,21.67-23.48,1-.25,2-.5,2-1.73,0-1.62-1.46-1.72-2.55-2-11.82-2.9-18.69-10.49-21.19-22.26-.19-.87,0-2.18-1.22-2.26-.31,0-.91,1.33-1.07,2.11-2.43,12-9.27,19.66-21.38,22.31-1.17.26-2.14.95-2.14,2.08,0,.55,1,1.43,1.69,1.6,12.5,3.07,19.49,11.17,21.82,23.63A14.81,14.81,0,0,0,106.55,264.87Zm16.24-110.52a15.34,15.34,0,0,0,1.27-2.72c2.37-11.67,8.93-19.33,20.85-21.91.94-.2,2-.41,2-1.69s-1.12-1.46-2.06-1.68c-11.79-2.84-19-10-21-22.14-.13-.79-.61-2.18-.86-2.17-1.26.08-1.14,1.35-1.28,2.22-1.88,11.82-8.69,19.08-20.2,22.12-.84.22-2,.87-2.17,1.5-.23,1.1,1,1.51,2,1.72,11.76,2.73,18.11,10.45,20.42,22A21.6,21.6,0,0,0,122.79,154.35Z"/><path class="cls-1" d="M226.88,288.71c-3.9-.64-5.17-3.31-5.56-6.86-1.69-15.65-3-31.38-7.34-46.59-9.19-32.27-32.1-47.92-64-52.52-5.66-.82-11.32-1.61-17-2.51-2.84-.45-4.89-1.93-4.83-5.09s2.2-4.3,4.8-4.83c10-2,20.26-3.37,30.08-6.15,34.08-9.64,50.32-34.14,55-67.78,1.41-10,2.54-20.11,3.86-30.16.39-3,1.59-5.84,5-5.74s4.53,3,4.91,6.16c2,17.22,2.67,34.72,8.64,51.23,11,30.32,34.34,44.55,64.86,49.3,5.85.91,11.68,2,17.45,3.25,2.27.51,4.73,1.58,4.56,4.64s-2.54,4-5.08,4.55c-10.1,2.15-20.41,3.22-30.42,6-32.47,8.93-50,30.91-55.53,63.3-1.92,11.25-3,22.65-4.56,34C231.37,285.71,230.55,288.43,226.88,288.71Z"/><path class="cls-1" d="M106.55,264.87a14.81,14.81,0,0,1-1.33-2.87c-2.33-12.46-9.32-20.56-21.82-23.63-.69-.17-1.69-1.05-1.69-1.6,0-1.13,1-1.82,2.14-2.08,12.11-2.65,19-10.35,21.38-22.31.16-.78.76-2.13,1.07-2.11,1.26.08,1,1.39,1.22,2.26,2.5,11.77,9.37,19.36,21.19,22.26,1.09.27,2.54.37,2.55,2,0,1.23-1,1.48-2,1.73C117,241.74,109.92,249.64,107.58,262A22.16,22.16,0,0,1,106.55,264.87Z"/><path class="cls-1" d="M122.79,154.35a21.6,21.6,0,0,1-1.07-2.79c-2.31-11.51-8.66-19.23-20.42-22-.91-.21-2.19-.62-2-1.72.13-.63,1.33-1.28,2.17-1.5,11.51-3,18.32-10.3,20.2-22.12.14-.87,0-2.14,1.28-2.22.25,0,.73,1.38.86,2.17,2.06,12.09,9.22,19.3,21,22.14.94.22,2,.43,2.06,1.68s-1.07,1.49-2,1.69C133,132.3,126.43,140,124.06,151.63A15.34,15.34,0,0,1,122.79,154.35Z"/></g></svg>
